<?xml version="1.0" standalone="no"?>
<!DOCTYPE svg PUBLIC "-//W3C//DTD SVG 20010904//EN"
 "http://www.w3.org/TR/2001/REC-SVG-20010904/DTD/svg10.dtd">
<svg version="1.0" xmlns="http://www.w3.org/2000/svg"
 width="512.000000pt" height="512.000000pt" viewBox="0 0 512.000000 512.000000"
 preserveAspectRatio="xMidYMid meet">
<metadata>
Created by potrace 1.11, written by Peter Selinger 2001-2013
</metadata>
<g transform="translate(0.000000,512.000000) scale(0.100000,-0.100000)"
fill="#000000" stroke="none">
<path d="M0 2560 l0 -2560 760 0 c418 0 760 4 760 8 0 4 22 42 49 83 57 88
175 203 250 243 87 46 107 43 301 -56 93 -48 170 -86 170 -84 0 4 -140 95
-188 122 l-34 19 54 17 c44 14 48 17 23 17 -17 1 -45 -3 -63 -8 -48 -14 -40 2
31 60 137 115 360 241 426 240 20 0 74 -11 121 -25 78 -23 83 -23 61 -5 -13
10 -42 22 -65 26 -32 4 -51 16 -83 52 -45 48 -57 49 -23 1 l20 -27 -44 -5
c-23 -3 -93 -29 -154 -58 -108 -51 -112 -52 -137 -36 -27 18 -35 7 -10 -14 20
-17 19 -25 -7 -37 -13 -6 -49 -31 -80 -57 l-57 -46 9 32 c9 31 21 49 95 153
20 28 45 67 55 87 11 20 49 76 86 125 36 48 70 97 74 108 14 34 83 91 126 103
74 21 104 16 168 -32 71 -54 115 -106 215 -256 42 -63 99 -138 126 -165 53
-54 181 -215 170 -215 -3 0 -21 11 -38 24 -54 39 -92 62 -83 48 4 -7 69 -56
144 -110 345 -245 480 -334 499 -330 12 2 5 11 -25 31 -39 25 -42 31 -42 72 0
37 3 45 19 45 11 0 23 11 29 28 16 41 32 151 32 217 0 65 -2 63 101 125 44 27
77 40 101 40 33 0 36 -3 42 -34 4 -18 4 -40 1 -48 -3 -8 7 -44 23 -79 16 -35
39 -92 52 -127 12 -34 27 -65 33 -69 7 -4 8 0 2 13 -25 57 -65 183 -65 206 0
14 -11 73 -24 130 -14 56 -28 130 -32 163 -7 54 -9 56 -14 26 l-5 -34 -32 52
c-38 60 -38 59 -20 80 18 21 50 104 38 97 -5 -4 -15 -21 -21 -40 -6 -18 -21
-38 -33 -43 -19 -9 -23 -22 -34 -124 -7 -63 -14 -121 -15 -129 -2 -8 2 -17 7
-20 6 -3 11 13 13 38 2 23 5 42 7 42 1 0 17 -14 35 -30 38 -35 31 -54 -25 -64
-19 -4 -56 -22 -84 -40 l-49 -33 -16 36 c-8 20 -13 25 -9 11 13 -49 -7 -291
-26 -328 -10 -18 -29 48 -52 173 -9 55 -18 94 -18 88 -2 -30 -21 -9 -41 44
-12 32 -30 69 -41 83 l-19 25 16 -45 c20 -57 47 -208 39 -220 -3 -5 4 -44 15
-86 19 -76 27 -174 13 -174 -4 0 -21 10 -38 21 -21 15 -38 41 -54 83 -13 34
-37 78 -53 97 -27 30 -28 31 -10 4 21 -32 62 -122 62 -136 0 -4 -24 7 -53 25
-134 82 -160 112 -136 157 6 11 8 24 4 27 -9 9 -35 -28 -35 -50 0 -15 -3 -16
-19 -6 -11 7 -24 23 -30 36 -13 28 -73 101 -157 191 -34 36 -94 116 -134 176
-40 61 -86 126 -102 146 -25 33 -26 38 -10 44 9 4 60 9 112 12 123 5 206 29
158 46 -7 2 1 11 18 20 17 9 53 33 80 53 87 67 153 64 229 -11 50 -50 59 -54
50 -25 -10 32 7 23 52 -27 43 -48 47 -69 10 -57 -16 5 -8 -8 28 -47 28 -30 63
-70 78 -89 15 -19 27 -30 27 -25 0 6 -23 37 -51 69 -59 70 -55 89 15 62 74
-28 92 -48 99 -107 6 -51 62 -187 73 -176 3 3 -9 38 -26 77 -36 81 -56 233
-45 329 6 46 13 59 52 97 62 60 88 59 157 -6 29 -28 61 -68 71 -90 12 -27 23
-39 33 -35 7 3 30 8 50 11 32 4 43 0 84 -33 44 -36 46 -40 42 -78 l-4 -40 12
32 c28 68 116 101 190 70 27 -11 43 -28 60 -61 l23 -45 57 52 c31 29 77 63
102 76 l46 22 30 -21 c32 -23 70 -87 70 -117 0 -25 -38 -85 -50 -78 -5 3 -16
-9 -23 -27 -8 -18 -41 -58 -75 -89 -57 -53 -122 -105 -122 -97 0 2 23 49 50
105 53 107 64 140 29 85 -25 -38 -26 -37 -44 15 -11 31 -14 33 -14 13 0 -14 6
-38 13 -55 11 -25 11 -35 -1 -57 -16 -33 -24 -34 -46 -10 -13 14 -15 31 -12
73 l5 54 -15 -65 c-14 -65 -18 -107 -8 -83 3 10 8 10 19 -1 7 -8 19 -16 25
-18 9 -3 9 -9 0 -25 -9 -18 -16 -20 -40 -13 -28 8 -31 6 -63 -48 -19 -32 -44
-82 -57 -112 -13 -30 -44 -88 -69 -130 -57 -94 -54 -90 -48 -90 12 0 116 150
132 189 10 25 27 46 45 55 35 17 35 14 8 -30 -32 -53 -15 -40 36 26 l46 60
118 -4 c144 -4 180 -19 343 -142 l113 -84 3 1437 c1 791 0 1443 -2 1448 -2 6
-47 28 -101 50 l-98 39 -68 88 c-37 49 -89 123 -116 166 -26 42 -51 79 -55 80
-15 7 -8 40 27 115 40 86 69 234 63 314 -3 29 -7 55 -9 57 -2 2 -45 1 -96 -3
-86 -6 -91 -5 -81 12 10 20 -5 110 -28 162 -7 16 -25 70 -39 119 -15 48 -28
86 -30 84 -2 -2 10 -55 26 -118 70 -263 70 -261 -73 -310 -54 -18 -135 -50
-181 -71 -45 -22 -90 -39 -99 -39 -31 0 -98 37 -98 54 0 3 15 13 33 22 43 22
127 93 127 107 0 6 -19 -8 -43 -31 -29 -28 -63 -49 -104 -63 -58 -19 -63 -19
-94 -4 l-32 17 40 26 c42 28 51 36 143 120 48 44 110 126 82 109 -5 -4 -55 46
-110 111 -264 312 -629 551 -1047 685 -214 68 -214 68 -685 65 -364 -3 -434
-6 -485 -21 -77 -22 -265 -116 -347 -172 -34 -24 -65 -42 -67 -39 -3 3 -1 8 4
12 17 12 16 32 -2 32 -18 0 61 82 90 93 10 4 17 11 17 17 0 5 7 10 16 10 9 0
25 11 35 24 14 18 28 24 51 23 17 -1 33 3 35 10 4 10 -179 13 -856 13 l-861 0
0 -2560z m1050 2510 c0 -5 -4 -10 -10 -10 -5 0 -10 5 -10 10 0 6 5 10 10 10 6
0 10 -4 10 -10z m165 -20 c3 -5 1 -10 -4 -10 -6 0 -11 5 -11 10 0 6 2 10 4 10
3 0 8 -4 11 -10z m291 -67 c-2 -3 -9 -2 -15 1 -7 5 -6 16 2 34 l12 27 3 -29
c2 -15 1 -30 -2 -33z m-46 32 c-7 -8 -16 -15 -21 -15 -5 0 -6 7 -3 15 4 8 13
15 21 15 13 0 13 -3 3 -15z m-120 -75 c0 -5 -4 -10 -10 -10 -5 0 -10 5 -10 10
0 6 5 10 10 10 6 0 10 -4 10 -10z m-997 -94 c23 -18 21 -26 -6 -26 -29 0 -37
7 -30 26 6 17 13 17 36 0z m-133 -26 c0 -5 -4 -10 -10 -10 -5 0 -10 5 -10 10
0 6 5 10 10 10 6 0 10 -4 10 -10z m140 -54 c0 -3 -4 -8 -10 -11 -5 -3 -10 -1
-10 4 0 6 5 11 10 11 6 0 10 -2 10 -4z m-245 -306 c3 -5 1 -10 -4 -10 -6 0
-11 5 -11 10 0 6 2 10 4 10 3 0 8 -4 11 -10z m45 -60 c0 -22 -7 -25 -29 -11
-16 10 -6 31 15 31 8 0 14 -9 14 -20z m-80 -151 c0 -5 -4 -9 -10 -9 -5 0 -10
7 -10 16 0 8 5 12 10 9 6 -3 10 -10 10 -16z m3638 -25 c27 -19 27 -61 -1 -78
-13 -8 -24 -7 -45 4 -32 18 -40 51 -17 74 21 20 35 20 63 0z m-50 -114 c26
-28 71 -62 101 -78 74 -37 84 -70 34 -109 -64 -52 -102 -96 -116 -136 -24 -74
-76 -73 -78 2 l-1 36 -10 -31 -10 -31 -37 33 c-20 19 -40 34 -46 34 -5 0 -22
12 -37 25 -39 34 -38 89 4 167 31 59 108 138 135 138 7 0 35 -23 61 -50z
m1089 -76 c11 -29 -27 -256 -54 -319 -14 -33 -35 -87 -46 -121 l-21 -60 -130
-2 c-72 -1 -169 -8 -216 -17 -163 -29 -211 -20 -320 63 -27 21 -73 50 -102 65
-88 47 -132 74 -136 85 -4 12 23 68 38 77 5 3 29 -4 52 -15 l43 -21 -32 29
c-37 32 -40 44 -18 62 9 7 15 20 14 29 -4 45 -5 44 123 37 78 -5 133 -13 152
-23 45 -23 116 -11 231 40 111 49 244 94 290 99 102 10 125 9 132 -8z m-2530
-112 c-31 -32 -35 -47 -10 -37 44 16 221 45 280 45 57 0 64 -2 53 -15 -21 -26
-4 -29 93 -19 119 12 228 7 221 -10 -4 -9 18 -16 73 -25 154 -24 224 -42 213
-56 -16 -19 -4 -24 97 -41 105 -18 163 -33 163 -41 0 -3 -7 -11 -17 -18 -19
-14 -10 -35 16 -35 10 0 50 -7 88 -16 75 -17 107 -32 86 -41 -23 -9 -14 -22
42 -60 35 -23 54 -41 51 -50 -4 -8 8 -22 29 -34 19 -11 36 -28 39 -37 3 -9 13
-82 21 -162 46 -423 111 -848 149 -973 8 -25 11 -48 8 -51 -7 -8 -91 -7 -119
0 -14 4 -24 17 -28 35 -9 40 -78 142 -118 171 -62 48 -117 70 -192 75 -94 7
-196 -11 -266 -48 -64 -35 -184 -149 -156 -149 10 0 28 5 40 11 17 9 15 4 -9
-22 -48 -52 -54 -82 -8 -39 l37 35 -37 -49 c-45 -60 -50 -80 -44 -161 4 -45
18 -89 48 -156 53 -116 52 -115 110 -140 26 -11 53 -31 60 -44 20 -38 40 -40
40 -4 l0 30 68 -7 c37 -4 74 -13 83 -20 21 -19 26 -18 32 6 4 16 14 20 52 20
25 0 55 -5 67 -11 26 -14 31 -7 16 25 -7 17 -22 29 -40 33 -15 3 -28 7 -28 10
0 2 11 19 24 36 76 102 106 249 72 360 -17 58 -6 60 40 10 38 -41 74 -108 74
-139 1 -10 7 -41 14 -69 l14 -50 17 58 c9 32 17 77 17 101 l0 44 59 11 c32 7
62 12 66 12 4 0 13 -16 20 -36 11 -33 10 -43 -11 -94 -36 -83 -63 -200 -80
-340 -18 -158 -23 -163 -160 -190 -68 -14 -105 -17 -117 -11 -29 16 -68 11
-90 -11 -18 -18 -19 -22 -6 -32 34 -28 97 -230 76 -243 -19 -12 -150 -44 -178
-44 -17 0 -33 -5 -36 -10 -4 -6 -14 -9 -23 -6 -10 3 -35 1 -57 -5 -60 -16
-103 -24 -291 -58 -93 -16 -177 -32 -185 -35 -41 -15 -575 -100 -784 -125 -55
-7 -109 -14 -121 -16 -17 -4 -25 3 -37 33 -26 59 -23 184 4 218 14 17 -16 37
-53 36 -16 0 -40 -9 -52 -20 -11 -11 -28 -22 -36 -25 -13 -5 -13 -6 0 -6 13
-1 15 -14 13 -73 l-2 -73 9 53 c14 75 36 122 57 122 16 0 18 -12 20 -135 1
-126 0 -135 -19 -141 -17 -5 -19 -12 -14 -57 l7 -52 -15 33 c-8 18 -18 48 -22
67 -8 45 -21 53 -33 22 -10 -25 -13 -26 -148 -43 -46 -6 -52 -4 -63 16 -27 51
-6 198 33 225 17 12 18 15 5 15 -44 0 -76 35 -127 138 -59 118 -123 219 -177
277 -54 60 -64 76 -64 111 0 32 1 32 63 40 34 5 66 8 70 9 5 0 14 -16 21 -35
12 -35 72 -130 82 -130 5 0 -2 82 -11 133 -7 36 27 158 49 176 11 9 14 0 19
-50 10 -118 111 -270 202 -305 l45 -17 -32 -22 c-17 -12 -32 -31 -33 -43 -2
-25 3 -27 28 -7 29 21 98 30 108 14 7 -11 14 -8 31 12 13 15 43 34 68 44 25 9
50 19 57 22 6 2 13 -5 15 -17 5 -32 22 -29 34 8 5 18 27 50 47 72 20 23 37 46
38 53 0 7 3 35 6 62 19 193 -1 279 -78 335 -46 33 -45 39 4 14 l32 -17 -25 25
c-14 14 -38 33 -55 42 -22 12 -24 16 -9 13 12 -3 28 -1 35 4 9 5 -11 20 -65
45 -133 63 -282 58 -419 -13 -114 -60 -175 -156 -186 -292 -6 -73 -7 -74 -43
-93 -20 -10 -51 -21 -70 -24 l-34 -6 -13 233 c-6 129 -21 356 -32 504 -16 208
-20 315 -15 465 8 265 12 282 82 349 41 40 52 56 42 63 -17 11 20 43 117 101
l70 42 -34 3 -34 3 59 40 c32 21 89 49 127 61 37 12 67 26 67 30 0 12 -46 28
-81 28 -16 0 -29 4 -29 9 0 14 92 31 165 31 48 0 65 4 65 13 0 15 117 130 170
167 l35 25 -29 -38 c-36 -47 -28 -57 21 -25 34 22 128 68 140 68 3 0 2 -7 -1
-16 -5 -12 -2 -15 11 -11 123 38 151 46 167 46 18 1 17 -2 -7 -27z m1542 -399
c28 -123 57 -331 81 -588 14 -157 32 -280 63 -430 24 -115 47 -218 52 -227 4
-11 3 -18 -3 -18 -30 0 -96 365 -152 845 -19 164 -51 390 -66 473 -4 17 -4 32
-1 32 3 0 15 -39 26 -87z m111 -162 c23 -39 48 -91 56 -117 18 -61 31 -259 17
-267 -13 -8 -36 25 -53 78 -7 22 -21 57 -31 77 -26 52 -54 298 -34 298 1 0 22
-31 45 -69z m160 -87 c0 -8 5 -12 10 -9 6 3 10 -1 10 -9 0 -8 -4 -17 -9 -20
-5 -3 -7 -15 -4 -25 10 -40 -16 -29 -32 14 -14 36 -15 48 -5 60 14 17 30 11
30 -11z m535 -114 c3 -5 1 -10 -4 -10 -6 0 -11 5 -11 10 0 6 2 10 4 10 3 0 8
-4 11 -10z m-3508 -328 c1 -136 10 -347 20 -469 10 -122 15 -219 11 -217 -5 3
-8 22 -8 42 0 20 -7 89 -14 152 -25 196 -38 467 -31 608 4 72 10 132 14 132 3
0 7 -111 8 -248z m-83 -215 c-3 -28 -25 -57 -43 -57 -18 0 -31 36 -18 49 8 8
9 14 1 19 -13 9 -27 45 -15 37 14 -8 19 17 9 52 -6 23 -3 45 13 90 35 94 43
87 50 -45 4 -64 5 -129 3 -145z m2484 -265 c9 -7 8 -13 -7 -26 -15 -14 -18
-23 -11 -37 16 -29 12 -47 -15 -65 -21 -13 -30 -14 -53 -5 -24 10 -35 8 -78
-14 -62 -32 -157 -37 -198 -10 -15 10 -26 25 -24 33 5 25 108 88 178 110 66
21 184 29 208 14z m542 -194 c17 -46 37 -96 45 -112 14 -30 10 -56 -7 -56 -6
0 -5 6 2 15 10 12 10 15 -2 15 -16 0 -37 46 -69 154 -22 72 -21 66 -10 66 5 0
24 -37 41 -82z m-400 6 c29 -87 -13 -217 -84 -261 -22 -14 -52 -34 -66 -43
-18 -12 -52 -17 -123 -19 -111 -3 -157 13 -215 72 -33 34 -72 127 -72 172 0
30 26 34 35 5 9 -27 25 -25 25 3 0 16 9 28 25 35 24 11 25 10 36 -32 6 -25 22
-55 37 -68 23 -21 24 -21 17 -3 -5 11 -9 35 -9 54 -1 30 3 35 34 46 23 8 36
19 38 33 4 27 12 28 40 1 14 -12 30 -18 41 -14 43 13 52 -64 14 -121 -23 -37
1 -28 36 11 27 31 31 43 31 95 0 56 1 60 24 60 17 0 27 -9 36 -30 16 -38 26
-28 29 28 1 6 14 12 30 12 25 0 31 -6 41 -36z m-2503 -141 c-2 -21 -4 -6 -4
32 0 39 2 55 4 38 2 -18 2 -50 0 -70z m2892 7 c0 -13 -1 -13 -8 0 -5 8 -12 26
-15 40 l-7 25 15 -25 c9 -14 15 -32 15 -40z m-2116 41 c46 -11 52 -15 41 -33
-5 -7 -7 -25 -5 -40 3 -29 -21 -48 -60 -48 -13 0 -43 -10 -68 -22 -95 -46
-214 -31 -246 32 -13 25 -12 29 3 43 67 59 230 92 335 68z m2148 -145 c0 -31
2 -36 8 -21 7 18 10 15 25 -18 15 -37 15 -41 -9 -90 -37 -79 -116 -172 -145
-172 -20 0 -26 6 -28 27 -3 21 8 38 45 77 26 27 56 65 67 83 16 28 11 26 -38
-22 -31 -30 -56 -48 -56 -40 1 30 30 154 39 163 14 14 51 -2 51 -23 0 -19 17
-36 26 -27 2 2 0 16 -6 31 -6 18 -19 28 -40 32 -34 7 -34 9 -19 68 l11 43 34
-35 c27 -28 34 -43 35 -76z m-1964 -80 c7 -74 -6 -119 -48 -173 -34 -43 -72
-65 -173 -100 -69 -24 -69 -24 -143 -7 -53 13 -85 27 -112 51 -68 58 -106 174
-61 186 14 4 25 -1 33 -14 17 -27 27 -24 27 10 0 33 3 35 41 44 24 6 28 3 44
-38 15 -42 46 -75 69 -75 5 0 0 10 -12 23 -67 71 -23 121 126 142 28 4 34 1
42 -21 6 -14 10 -39 10 -57 0 -29 1 -30 17 -15 18 19 22 67 10 111 -6 23 -5
27 15 27 12 0 30 -7 40 -17 17 -15 18 -15 18 5 0 11 6 22 13 25 19 7 37 -37
44 -107z m-950 37 c-2 -16 -4 -5 -4 22 0 28 2 40 4 28 2 -13 2 -35 0 -50z
m3023 -15 c0 -10 -11 -10 -29 1 -9 6 -10 11 -2 15 6 4 9 13 5 19 -3 7 2 3 10
-7 9 -11 16 -23 16 -28z m10 -52 c-15 -15 -12 -30 4 -17 10 9 15 8 20 -4 3 -8
1 -15 -5 -15 -6 0 -7 -6 -4 -12 4 -7 -5 0 -19 15 -31 34 -33 46 -6 44 13 -1
16 -5 10 -11z m65 -116 c7 -22 6 -23 -7 -12 -9 7 -18 24 -21 38 -4 21 -2 23 8
12 7 -7 16 -24 20 -38z m-2172 -45 c-3 -9 -8 -14 -10 -11 -3 3 -2 9 2 15 9 16
15 13 8 -4z m2207 -12 c0 -20 -24 -11 -28 10 -2 12 1 15 12 11 9 -3 16 -13 16
-21z m-3113 -25 c-3 -7 -5 -2 -5 12 0 14 2 19 5 13 2 -7 2 -19 0 -25z m52 -61
c-1 -40 -2 -40 -9 -12 -11 44 -11 67 0 60 6 -3 9 -25 9 -48z m2715 42 c72 -33
155 -266 128 -359 l-10 -35 -1 35 c-2 62 -19 109 -39 103 -26 -6 -49 25 -65
87 -21 81 -43 127 -66 142 -15 9 -17 15 -9 25 13 16 30 16 62 2z m-74 -46 c0
-10 14 -42 30 -72 16 -29 32 -75 36 -101 6 -43 4 -48 -17 -55 -39 -12 -52 -15
-99 -21 -25 -4 -50 -11 -56 -16 -12 -9 -20 7 -49 107 -10 33 -26 77 -36 98
-22 43 -27 39 76 61 96 20 115 20 115 -1z m-2586 -44 l27 -41 -25 -23 c-25
-24 -36 -75 -16 -75 6 0 10 13 10 28 0 29 16 52 35 52 11 0 107 -152 100 -159
-3 -2 -38 12 -78 33 -95 49 -64 19 36 -35 88 -47 112 -78 84 -107 -16 -16 -20
-15 -60 6 -24 13 -71 46 -106 73 l-62 51 1 51 c1 29 -2 64 -5 79 -5 18 -1 41
11 67 11 22 20 41 20 41 1 0 13 -18 28 -41z m2351 -16 c38 -53 71 -148 81
-235 8 -65 -10 -90 -21 -29 -5 30 -12 41 -27 43 -17 2 -28 24 -58 117 -21 67
-43 117 -53 123 -23 12 -12 28 18 28 18 0 35 -13 60 -47z m-2105 -316 c0 -2
-7 -17 -15 -34 -9 -18 -16 -66 -17 -128 -3 -96 -4 -99 -28 -105 -14 -4 -24
-11 -24 -16 1 -5 4 -29 8 -54 l6 -45 -16 35 c-36 79 -28 287 13 333 13 14 73
25 73 14z m2140 -167 c0 -5 -4 -10 -10 -10 -5 0 -10 5 -10 10 0 6 5 10 10 10
6 0 10 -4 10 -10z m-1378 -277 c-6 -10 -26 -33 -45 -51 l-35 -34 -96 22 c-53
13 -95 24 -93 26 5 6 271 62 275 58 2 -1 -1 -11 -6 -21z m1728 -118 c0 -8 -4
-15 -10 -15 -5 0 -7 7 -4 15 4 8 8 15 10 15 2 0 4 -7 4 -15z m-2016 -86 c75
-71 86 -85 86 -115 0 -43 -15 -49 -64 -29 -21 9 -55 15 -75 13 l-36 -3 -6 65
c-10 100 -10 150 0 150 5 0 48 -36 95 -81z m61 61 c39 -10 69 -22 68 -27 -1
-4 -10 -24 -20 -45 l-18 -36 -68 64 c-74 70 -71 73 38 44z m2632 -37 c-3 -3
-15 -2 -26 2 l-21 6 22 19 c23 18 23 18 26 -2 2 -11 1 -22 -1 -25z m-1027
-160 c0 -10 3 -35 6 -55 4 -24 3 -38 -4 -38 -5 0 -12 25 -14 55 -1 30 0 55 5
55 4 0 7 -8 7 -17z"/>
<path d="M3860 3770 c0 -5 14 -10 30 -10 17 0 30 5 30 10 0 6 -13 10 -30 10
-16 0 -30 -4 -30 -10z"/>
<path d="M3074 3026 c-69 -17 -164 -56 -164 -68 0 -5 8 -7 18 -4 124 36 458
32 677 -9 l30 -6 -26 15 c-57 33 -330 87 -434 85 -27 0 -73 -6 -101 -13z"/>
<path d="M1735 2783 c-83 -6 -153 -27 -240 -70 -97 -49 -229 -133 -285 -182
-38 -34 -33 -42 8 -12 48 33 253 132 367 176 60 24 144 48 185 55 99 16 112
21 75 30 -32 8 -47 9 -110 3z"/>
<path d="M3010 2505 c-20 -24 -6 -28 15 -5 10 11 13 20 8 20 -6 0 -16 -7 -23
-15z"/>
<path d="M1905 2310 c3 -5 13 -10 21 -10 8 0 12 5 9 10 -3 6 -13 10 -21 10 -8
0 -12 -4 -9 -10z"/>
<path d="M1568 1183 c7 -3 16 -2 19 1 4 3 -2 6 -13 5 -11 0 -14 -3 -6 -6z"/>
<path d="M3184 5108 c-4 -7 -4 -10 1 -6 4 4 16 3 26 -3 15 -7 17 -6 13 6 -7
18 -30 20 -40 3z"/>
<path d="M3235 5110 c3 -5 14 -10 24 -10 9 0 23 -6 30 -12 10 -11 15 -9 26 6
16 21 35 13 35 -15 0 -11 7 -19 18 -19 9 0 27 -3 40 -6 16 -5 21 -3 17 7 -6
18 11 46 22 36 4 -5 1 -12 -7 -17 -12 -7 -12 -12 -2 -22 10 -10 14 -9 18 8 5
20 54 33 54 14 0 -6 9 -10 20 -10 14 0 20 -7 20 -22 0 -34 -14 -50 -36 -42
-15 5 -16 4 -4 -5 8 -6 23 -8 33 -5 9 3 17 0 17 -7 0 -9 4 -8 15 1 10 9 15 9
15 1 0 -6 11 -11 25 -11 14 0 25 4 25 10 0 5 8 6 18 3 16 -6 16 -6 0 10 -20
20 -35 22 -41 5 -2 -7 -8 -9 -13 -5 -4 4 -3 17 4 27 10 16 10 20 -2 20 -21 0
-27 27 -10 45 9 8 19 15 24 15 16 0 22 -21 10 -35 -10 -12 -9 -15 4 -15 9 0
16 -6 16 -14 0 -19 32 -30 41 -14 6 9 1 15 -13 18 -30 8 -31 37 -2 44 14 4 29
4 34 1 6 -4 16 -3 23 2 18 11 36 12 43 2 3 -5 13 -9 22 -9 15 1 15 2 -2 15
-26 20 -306 22 -306 3 0 -10 -2 -10 -8 -1 -4 7 -49 11 -130 12 -82 1 -121 -2
-117 -9z m339 -15 c-6 -14 -44 -22 -44 -10 0 4 29 19 47 24 1 1 0 -6 -3 -14z
m6 -75 c0 -5 -2 -10 -4 -10 -3 0 -8 5 -11 10 -3 6 -1 10 4 10 6 0 11 -4 11
-10z"/>
<path d="M3460 5049 c0 -6 7 -8 16 -5 8 3 12 2 9 -4 -3 -6 1 -10 9 -10 9 0 16
7 16 15 0 9 -9 15 -25 15 -14 0 -25 -5 -25 -11z"/>
<path d="M3770 4995 c-10 -12 -10 -15 3 -15 19 0 31 16 18 24 -5 3 -14 -1 -21
-9z"/>
<path d="M4440 4526 c0 -2 8 -10 18 -17 15 -13 16 -12 3 4 -13 16 -21 21 -21
13z"/>
<path d="M4266 4118 c-16 -22 -15 -35 2 -24 9 5 24 46 17 46 -2 0 -11 -10 -19
-22z"/>
<path d="M3154 969 c-4 -7 0 -9 14 -5 12 4 34 0 52 -9 16 -8 30 -13 30 -11 0
8 -57 36 -74 36 -8 0 -18 -5 -22 -11z"/>
<path d="M3695 701 c3 -18 5 -44 5 -57 0 -13 4 -24 9 -24 11 0 3 63 -11 95 -6
15 -7 11 -3 -14z"/>
<path d="M4220 569 c0 -8 -8 -31 -19 -51 -10 -20 -21 -56 -24 -80 -3 -24 -18
-80 -32 -125 -15 -45 -25 -94 -23 -110 3 -24 7 -18 21 32 23 79 30 89 56 93
15 2 21 8 17 18 -3 8 -2 13 3 10 4 -3 11 -40 13 -81 8 -129 23 -104 26 46 2
90 -1 159 -9 192 -13 53 -29 84 -29 56z"/>
<path d="M4360 578 c0 -4 9 -22 20 -40 11 -18 20 -26 20 -18 0 15 -39 72 -40
58z"/>
<path d="M3430 410 c12 -30 27 -68 32 -83 6 -15 12 -26 14 -24 6 5 -45 140
-57 152 -6 6 -1 -15 11 -45z"/>
<path d="M3787 345 c-36 -35 -46 -55 -28 -55 6 0 13 -21 16 -47 18 -135 38
-225 46 -210 6 9 3 55 -6 116 -20 131 -19 180 2 203 31 34 6 28 -30 -7z"/>
<path d="M4954 323 c2 -10 8 -38 11 -63 4 -25 12 -52 17 -60 8 -13 9 -12 4 2
-3 9 -8 44 -12 77 -3 34 -11 61 -16 61 -5 0 -7 -8 -4 -17z"/>
<path d="M2390 267 c0 -2 37 -34 83 -72 61 -51 72 -57 42 -26 -36 38 -125 108
-125 98z"/>
</g>
</svg>
